HIERARCHY
ROOT Hips
{
	OFFSET 0.00000 0.00000 0.00000
	CHANNELS 6 Xposition Yposition Zposition Zrotation Yrotation Xrotation 
	JOINT LHipJoint
	{
		OFFSET 0 0 0
		CHANNELS 3 Zrotation Yrotation Xrotation
		JOINT LeftUpLeg
		{
			OFFSET 1.64549 -1.70879 0.84566
			CHANNELS 3 Zrotation Yrotation Xrotation
			JOINT LeftLeg
			{
				OFFSET 2.24963 -6.18082 0.00000
				CHANNELS 3 Zrotation Yrotation Xrotation
				JOINT LeftFoot
				{
					OFFSET 2.71775 -7.46697 0.00000
					CHANNELS 3 Zrotation Yrotation Xrotation
					JOINT LeftToeBase
					{
						OFFSET 0.18768 -0.51564 2.24737
						CHANNELS 3 Zrotation Yrotation Xrotation
						End Site
						{
							OFFSET 0.00000 -0.00000 1.15935
						}
					}
				}
			}
		}
	}
	JOINT RHipJoint
	{
		OFFSET 0 0 0
		CHANNELS 3 Zrotation Yrotation Xrotation
		JOINT RightUpLeg
		{
			OFFSET -1.58830 -1.70879 0.84566
			CHANNELS 3 Zrotation Yrotation Xrotation
			JOINT RightLeg
			{
				OFFSET -2.25006 -6.18201 0.00000
				CHANNELS 3 Zrotation Yrotation Xrotation
				JOINT RightFoot
				{
					OFFSET -2.72829 -7.49593 0.00000
					CHANNELS 3 Zrotation Yrotation Xrotation
					JOINT RightToeBase
					{
						OFFSET -0.21541 -0.59185 2.10643
						CHANNELS 3 Zrotation Yrotation Xrotation
						End Site
						{
							OFFSET -0.00000 -0.00000 1.09838
						}
					}
				}
			}
		}
	}
	JOINT LowerBack
	{
		OFFSET 0 0 0
		CHANNELS 3 Zrotation Yrotation Xrotation
		JOINT Spine
		{
			OFFSET 0.03142 2.10496 -0.11038
			CHANNELS 3 Zrotation Yrotation Xrotation
			JOINT Spine1
			{
				OFFSET -0.01863 2.10897 -0.06956
				CHANNELS 3 Zrotation Yrotation Xrotation
				JOINT Neck
				{
					OFFSET 0 0 0
					CHANNELS 3 Zrotation Yrotation Xrotation
					JOINT Neck1
					{
						OFFSET -0.02267 1.73238 0.00451
						CHANNELS 3 Zrotation Yrotation Xrotation
						JOINT Head
						{
							OFFSET -0.05808 1.54724 -0.61749
							CHANNELS 3 Zrotation Yrotation Xrotation
							End Site
							{
								OFFSET -0.01396 1.71468 -0.21082
							}
						}
					}
				}
				JOINT LeftShoulder
				{
					OFFSET 0 0 0
					CHANNELS 3 Zrotation Yrotation Xrotation
					JOINT LeftArm
					{
						OFFSET 3.44898 0.50298 0.21920
						CHANNELS 3 Zrotation Yrotation Xrotation
						JOINT LeftForeArm
						{
							OFFSET 5.41917 -0.00000 -0.00000
							CHANNELS 3 Zrotation Yrotation Xrotation
							JOINT LeftHand
							{
								OFFSET 2.44373 -0.00000 0.00000
								CHANNELS 3 Zrotation Yrotation Xrotation
								JOINT LeftFingerBase
								{
									OFFSET 0 0 0
									CHANNELS 3 Zrotation Yrotation Xrotation
									JOINT LeftHandIndex1
									{
										OFFSET 0.72750 -0.00000 0.00000
										CHANNELS 3 Zrotation Yrotation Xrotation
										End Site
										{
											OFFSET 0.58653 -0.00000 0.00000
										}
									}
								}
								JOINT LThumb
								{
									OFFSET 0 0 0
									CHANNELS 3 Zrotation Yrotation Xrotation
									End Site
									{
										OFFSET 0.59549 -0.00000 0.59549
									}
								}
							}
						}
					}
				}
				JOINT RightShoulder
				{
					OFFSET 0 0 0
					CHANNELS 3 Zrotation Yrotation Xrotation
					JOINT RightArm
					{
						OFFSET -3.23015 0.55830 0.31051
						CHANNELS 3 Zrotation Yrotation Xrotation
						JOINT RightForeArm
						{
							OFFSET -5.58976 -0.00010 0.00014
							CHANNELS 3 Zrotation Yrotation Xrotation
							JOINT RightHand
							{
								OFFSET -2.48060 -0.00000 0.00000
								CHANNELS 3 Zrotation Yrotation Xrotation
								JOINT RightFingerBase
								{
									OFFSET 0 0 0
									CHANNELS 3 Zrotation Yrotation Xrotation
									JOINT RightHandIndex1
									{
										OFFSET -0.81601 -0.00000 0.00000
										CHANNELS 3 Zrotation Yrotation Xrotation
										End Site
										{
											OFFSET -0.65789 -0.00000 0.00000
										}
									}
								}
								JOINT RThumb
								{
									OFFSET 0 0 0
									CHANNELS 3 Zrotation Yrotation Xrotation
									End Site
									{
										OFFSET -0.66793 -0.00000 0.66793
									}
								}
							}
						}
					}
				}
			}
		}
	}
}
MOTION
Frames: 12
Frame Time: .0083333
1.4363 17.2428 34.2845 0 0 0 0 0 0 -21 0 0 0 0 0 0 0 0 0 0 0 0 0 0 21 0 0 0 0 0 0 0 0 0 0 0 0 0 0 0 0 0 0 0 0 0 0 -16 0 0 21 0 0 11 0 0 0 -8 0 0 0 0 0 0 0 0 0 0 0 0 0 0 0 0 0 0 0 0 8 0 0 0 0 0 0 0 0 0 0 0 0 0 0 0 0 0
1.4363 17.2428 34.2845 -174.3150 -53.4529 -158.4840 0.0000 0.0000 0.0000 -25.1094 -9.2148 -37.3408 2.6667 10.1349 29.4147 4.6941 13.9666 -47.0508 1.3812 7.4366 21.0156 0.0000 0.0000 0.0000 31.9483 -0.3541 -14.6130 -3.4691 -11.4183 33.7040 -1.3712 -33.7618 30.2057 -1.7441 -8.3113 23.6638 -1.6182 5.2826 -17.5157 -1.0261 6.1518 -10.5350 0.7928 2.6847 -1.5704 2.1937 1.9096 -12.2781 2.8216 0.0917 31.0157 0.6022 0.2068 12.2728 0.0000 0.0000 0.0000 -88.0887 16.0317 -14.0978 15.1359 -24.3350 -3.2817 -0.0000 -0.0000 2.0388 -0.6632 19.0398 -0.2164 -7.1250 0.0000 -0.0000 -27.2405 47.0136 -1.4589 0.0000 0.0000 0.0000 84.9605 -14.6551 -17.9628 -4.8559 8.3411 -0.3543 0.0000 0.0000 25.2058 -4.4010 15.7126 -1.1940 7.1250 -0.0000 -0.0000 15.5532 -14.6063 11.5702
1.4360 17.2362 34.2875 -174.1590 -53.5347 -158.6840 0.0000 0.0000 0.0000 -24.9841 -9.2306 -37.3697 2.7051 10.2016 29.6322 4.7559 13.6555 -47.1226 1.4386 7.5831 21.4549 0.0000 0.0000 0.0000 32.0486 -0.7435 -14.6274 -3.4589 -11.4032 33.6522 -1.5625 -33.2973 30.7703 -1.6688 -8.1392 23.1376 -1.5225 5.2311 -17.4670 -0.9259 6.0718 -10.5215 0.8293 2.6444 -1.5790 1.9368 1.9664 -12.4019 2.9589 0.1890 31.1109 0.7143 0.2388 12.3338 -0.0000 0.0000 0.0000 -88.2768 16.1248 -14.4256 14.9689 -24.1028 -3.2132 -0.0000 -0.0000 2.4027 -0.9032 18.9570 -0.2934 -7.1250 0.0000 -0.0000 -27.4096 46.9082 -1.3929 -0.0000 0.0000 0.0000 84.8700 -14.5578 -17.8277 -4.9724 8.5379 -0.3714 0.0000 0.0000 24.0348 -2.8268 15.2073 -0.7421 7.1250 -0.0000 -0.0000 16.6163 -15.1625 12.2249
1.4355 17.2358 34.2892 -174.1670 -53.5412 -158.6970 0.0000 0.0000 0.0000 -24.9624 -9.3092 -37.3159 2.7031 10.1982 29.6208 4.7425 13.7551 -47.1243 1.4085 7.5066 21.2251 0.0000 0.0000 0.0000 32.0326 -0.8776 -14.6912 -3.4694 -11.4187 33.7055 -1.5925 -33.2016 30.8472 -1.6575 -8.1129 23.0574 -1.5315 5.2152 -17.4471 -0.9188 6.0482 -10.5467 0.8353 2.6323 -1.6178 1.8728 1.9791 -12.5119 3.0454 0.1791 31.2521 0.7588 0.2369 12.4142 -0.0000 -0.0000 0.0000 -88.3343 16.3141 -14.3128 14.8749 -23.9716 -3.1749 -0.0000 -0.0000 2.4665 -0.8589 18.9668 -0.2792 -7.1250 0.0000 -0.0000 -27.3758 46.9229 -1.4015 -0.0000 -0.0000 0.0000 84.9633 -14.5842 -17.8069 -4.9778 8.5470 -0.3722 0.0000 0.0000 23.7111 -2.4943 15.2244 -0.6554 7.1250 -0.0000 -0.0000 16.8328 -15.1592 12.4005
1.4367 17.2381 34.2890 -174.2780 -53.5104 -158.5950 0.0000 0.0000 0.0000 -25.0392 -9.3060 -37.3745 2.7120 10.2135 29.6709 4.6878 13.9850 -47.0363 1.3335 7.3121 20.6434 0.0000 0.0000 0.0000 31.9419 -0.7873 -14.7271 -3.4705 -11.4204 33.7110 -1.5988 -33.2612 30.9063 -1.6262 -8.0397 22.8348 -1.6341 5.1977 -17.4718 -0.9437 6.0363 -10.5647 0.8649 2.6290 -1.6333 1.8405 1.9949 -12.6455 3.1386 0.1667 31.3695 0.8003 0.2398 12.4907 -0.0000 -0.0000 0.0000 -88.3695 16.3815 -14.5480 14.7572 -23.8068 -3.1273 -0.0000 -0.0000 2.7488 -1.0290 19.0624 -0.3361 -7.1250 0.0000 -0.0000 -27.5709 46.9853 -1.4587 -0.0000 -0.0000 0.0000 85.1386 -14.8171 -17.8250 -4.8810 8.3835 -0.3579 0.0000 0.0000 25.1248 -4.5295 15.7791 -1.2341 7.1250 -0.0000 -0.0000 15.4652 -14.5359 11.5237
1.4379 17.2396 34.2879 -174.2220 -53.5293 -158.6910 0.0000 0.0000 0.0000 -24.9673 -9.3921 -37.2958 2.7146 10.2181 29.6858 4.6890 14.1753 -47.1455 1.2783 7.1652 20.2056 0.0000 0.0000 0.0000 31.9815 -0.7602 -14.6899 -3.4703 -11.4200 33.7097 -1.6255 -33.2199 30.9981 -1.6161 -8.0159 22.7623 -1.6843 5.1270 -17.5338 -0.8601 5.9602 -10.4799 0.9771 2.5980 -1.5226 1.8625 2.0358 -12.7855 3.0594 0.2500 31.3745 0.7800 0.2735 12.5215 0.0000 0.0000 0.0000 -88.5285 16.2966 -15.1195 14.6567 -23.6657 -3.0868 -0.0000 -0.0000 3.2035 -1.1763 18.9849 -0.3827 -7.1250 0.0000 -0.0000 -27.6614 46.8969 -1.3994 0.0000 0.0000 0.0000 85.0711 -14.6139 -17.6964 -4.9026 8.4201 -0.3611 0.0000 0.0000 24.7627 -4.4389 15.5682 -1.1936 7.1250 -0.0000 -0.0000 15.5364 -14.7440 11.5091
1.4378 17.2407 34.2892 -174.0670 -53.6104 -158.8350 0.0000 0.0000 0.0000 -24.8906 -9.3045 -37.3069 2.7173 10.2227 29.7009 4.5666 14.4572 -46.8255 1.1981 6.9450 19.5525 0.0000 0.0000 0.0000 32.1003 -0.8161 -14.6768 -3.4647 -11.4118 33.6815 -1.6488 -33.1583 31.0652 -1.6104 -8.0025 22.7217 -1.6075 5.1009 -17.5260 -0.8117 5.9078 -10.5224 0.9747 2.5677 -1.5679 1.9495 2.0434 -12.6785 2.9361 0.2805 31.3423 0.7206 0.2794 12.4862 0.0000 -0.0000 0.0000 -88.5140 16.4806 -15.1388 14.5904 -23.5725 -3.0603 -0.0000 -0.0000 3.0116 -1.0631 19.0539 -0.3471 -7.1250 0.0000 -0.0000 -27.5965 46.9731 -1.4514 0.0000 -0.0000 0.0000 85.0617 -14.7244 -17.6313 -4.9315 8.4689 -0.3654 0.0000 0.0000 24.4681 -4.6628 15.5900 -1.2557 7.1250 -0.0000 -0.0000 15.3881 -14.7121 11.4015
1.4366 17.2400 34.2943 -174.0500 -53.6535 -158.8290 0.0000 0.0000 0.0000 -24.8832 -9.3284 -37.3206 2.7166 10.2215 29.6969 4.5639 14.3840 -46.7736 1.2368 7.0524 19.8707 0.0000 0.0000 0.0000 32.1065 -0.9104 -14.7002 -3.4531 -11.3947 33.6230 -1.6836 -33.0960 31.1806 -1.6024 -7.9835 22.6639 -1.5018 5.1158 -17.5068 -0.8555 5.9041 -10.5825 0.8663 2.5570 -1.6261 1.9075 2.0307 -12.7374 3.0099 0.2332 31.4610 0.7505 0.2608 12.5477 -0.0000 0.0000 0.0000 -88.4306 16.6435 -15.1003 14.5434 -23.5062 -3.0415 -0.0000 -0.0000 2.7300 -0.9745 19.0767 -0.3185 -7.1250 0.0000 -0.0000 -27.5304 47.0051 -1.4708 -0.0000 0.0000 0.0000 85.2200 -14.7979 -17.6536 -4.9681 8.5307 -0.3708 0.0000 0.0000 24.3078 -4.8794 15.4906 -1.3061 7.1250 -0.0000 -0.0000 15.2510 -14.7975 11.2630
1.4359 17.2388 34.2974 -174.0770 -53.6496 -158.7950 0.0000 0.0000 0.0000 -24.9405 -9.2888 -37.3797 2.7225 10.2317 29.7303 4.5716 14.3580 -46.7892 1.2717 7.1474 20.1529 0.0000 0.0000 0.0000 32.0853 -0.8129 -14.6635 -3.4451 -11.3829 33.5824 -1.6645 -33.2110 31.1597 -1.6063 -7.9928 22.6922 -1.5511 5.1078 -17.5737 -0.8119 5.9017 -10.5591 0.9446 2.5592 -1.5768 1.8268 2.0082 -12.9016 3.0269 0.2061 31.5671 0.7697 0.2434 12.6257 0.0000 -0.0000 0.0000 -88.4961 16.6490 -15.1398 14.4250 -23.3390 -2.9944 -0.0000 -0.0000 2.8561 -0.8359 19.0570 -0.2730 -7.1250 0.0000 -0.0000 -27.3999 47.0061 -1.4633 0.0000 -0.0000 0.0000 85.2507 -14.7596 -17.6844 -5.0182 8.6152 -0.3782 0.0000 0.0000 24.0973 -5.1984 15.3703 -1.3814 7.1250 -0.0000 -0.0000 15.0473 -14.8979 11.0676
1.4358 17.2412 34.2988 -174.1210 -53.6322 -158.7450 0.0000 0.0000 0.0000 -24.9759 -9.2961 -37.4155 2.7243 10.2348 29.7405 4.6005 14.3125 -46.8767 1.2733 7.1516 20.1653 0.0000 0.0000 0.0000 32.0824 -0.3938 -14.5072 -3.4386 -11.3733 33.5496 -1.4048 -33.9902 30.4778 -1.7918 -8.4182 23.9915 -1.6230 5.0865 -17.6812 -0.7666 5.8890 -10.5023 1.0405 2.5579 -1.4731 1.9173 2.0413 -12.9434 2.9442 0.2724 31.4725 0.7321 0.2772 12.5957 -0.0000 -0.0000 0.0000 -88.6004 16.5455 -15.3137 14.3357 -23.2126 -2.9592 -0.0000 -0.0000 2.9834 -0.7637 19.0098 -0.2488 -7.1250 0.0000 -0.0000 -27.3137 46.9737 -1.4346 -0.0000 -0.0000 0.0000 85.1847 -14.6421 -17.6657 -4.9551 8.5086 -0.3688 0.0000 0.0000 24.0046 -6.0047 15.5165 -1.6118 7.1250 -0.0000 -0.0000 14.5078 -14.7141 10.7016
1.4362 17.2378 34.3000 -174.0130 -53.6162 -158.8350 0.0000 0.0000 0.0000 -24.9099 -9.2244 -37.4521 2.7258 10.2374 29.7491 4.6627 14.0462 -46.9719 1.3099 7.2498 20.4576 0.0000 0.0000 0.0000 32.1080 -0.6922 -14.5931 -3.4334 -11.3657 33.5233 -1.6589 -33.2569 31.1605 -1.6694 -8.1405 23.1415 -1.5597 5.0690 -17.7289 -0.7018 5.8584 -10.4717 1.0738 2.5414 -1.4148 1.9527 2.0826 -12.9121 2.8636 0.3662 31.3534 0.7077 0.3154 12.5392 -0.0000 -0.0000 0.0000 -88.7033 16.5632 -15.5528 14.3622 -23.2501 -2.9696 -0.0000 -0.0000 3.0463 -0.8718 19.0067 -0.2840 -7.1250 0.0000 -0.0000 -27.4065 46.9565 -1.4278 -0.0000 -0.0000 0.0000 85.0621 -14.5449 -17.5446 -4.8396 8.3137 -0.3519 0.0000 0.0000 24.1091 -7.1832 15.8200 -1.9678 7.1250 -0.0000 -0.0000 13.7164 -14.3509 10.1903
1.4374 17.2380 34.2979 -173.8670 -53.6281 -158.9810 0.0000 0.0000 0.0000 -24.8754 -8.9622 -37.5258 2.7301 10.2448 29.7732 4.6415 13.8433 -46.7778 1.3085 7.2461 20.4464 0.0000 0.0000 0.0000 32.2130 -0.6509 -14.5388 -3.4363 -11.3700 33.5380 -1.6040 -33.3369 30.9688 -1.7278 -8.2746 23.5512 -1.4774 5.0671 -17.7117 -0.6695 5.8444 -10.4673 1.0591 2.5320 -1.4130 1.8209 2.0510 -13.0786 2.9298 0.3251 31.4462 0.7525 0.2917 12.6115 -0.0000 -0.0000 0.0000 -88.7393 16.6058 -15.7560 14.3910 -23.2909 -2.9810 -0.0000 -0.0000 3.1933 -0.7225 19.1181 -0.2367 -7.1250 0.0000 -0.0000 -27.3306 47.0754 -1.5092 -0.0000 -0.0000 0.0000 85.1070 -14.4767 -17.5102 -4.7898 8.2294 -0.3448 0.0000 0.0000 24.3230 -5.2708 15.5084 -1.4130 7.1250 -0.0000 -0.0000 14.9924 -14.7604 11.0699
